<svg xmlns="http://www.w3.org/2000/svg" viewBox="0 0 220 80" width="220" height="80" preserveAspectRatio="xMidYMid meet">
  <!-- Coiled dragon: Lorc, game-icons.net, CC BY 3.0.
       https://game-icons.net/1x1/lorc/dragon-spiral.html -->

  <defs>
    <linearGradient id="dd-grad" x1="0" y1="0" x2="0.6" y2="1">
      <stop offset="0%"  stop-color="#8bdc9a"/>
      <stop offset="45%" stop-color="#2e7d32"/>
      <stop offset="100%" stop-color="#1b3a1c"/>
    </linearGradient>
    <pattern id="dd-scales" patternUnits="userSpaceOnUse" width="6" height="5">
      <path d="M0 5 Q1.5 0 3 5 Q4.5 0 6 5" stroke="#0b1f0d" stroke-width="0.5" fill="none" opacity="0.55"/>
    </pattern>
    <path id="dd-path" d="M215.125 17.188C142.557 18.134 72.68 64.075 40.187 132.25c-56.91 119.42 7.05 260.175 122.313 314.406 53.513 25.185 114.67 31.57 172.563 19.78l9.625 21.845 152.75-34.03c-.64-13.024-1.892-29.087-3.407-45.97-3.353 6.146-8.283 11.545-14.655 15.5-19.667 12.21-45.51 6.137-57.72-13.53-12.208-19.667-6.165-45.51 13.5-57.72 6.762-4.196 14.274-6.21 21.69-6.28 12.278-.118 24.32 5.173 32.53 15-4.06-38.385-8.03-70.97-8.03-70.97-58.49 31.19-115.34 47.06-174.47 60.408v-.375c-46.538 12.515-126.428 1.26-156.5-30.22 18.292 40.602 81.708 65.04 149.313 65.844l8.343 18.938c-24.334 9.436-50.313 14.416-76.374 14.313l-14.22-17.97L194.72 415.5c-13.017-2.59-25.656-6.54-37.69-11.72l-9.56-23.186-23.876 4.656c-7.174-4.967-13.972-10.416-20.375-16.28l-.564-24.126-26.344-6.5c-3.69-5.284-7.09-10.758-10.187-16.406L74.97 295l-23.657-9.47c-1.876-6.79-3.32-13.74-4.313-20.81l13.875-21.564-14.125-21.844c.057-.448.095-.894.156-1.343.87-6.424 2.175-12.74 3.844-18.94l20.188-13.25-6.594-20.686c3.268-6 6.91-11.757 10.906-17.25l25.688-5.406 3.093-24.625c5.754-4.555 11.836-8.695 18.19-12.313l22.718 6.78 9.812-20.124c9.6-2.523 19.57-3.957 29.78-4.187l20.845 15.25 20.063-9.376c50.687 16.437 88.647 65.967 80.53 121.594-2.905 19.914-12.198 38.33-25.437 52.437 3.03-20.242-10.88-43.178-35.092-55-28.472-13.902-60.35-7.162-71.188 15.03-10.836 22.194 3.466 51.443 31.938 65.345 4.653 2.272 9.396 3.995 14.125 5.188 57.96 18.97 121.378-12.46 147.593-66.063 36.94-75.536-3.372-165.134-76.125-200.22-23.733-11.444-48.587-16.803-73.186-16.968-1.153-.007-2.317-.015-3.47 0zM396.47 348.375l-1.626 37.188-60.53-10.657 62.155-26.53z"/>
    <clipPath id="dd-clip" clipPathUnits="userSpaceOnUse">
      <use href="#dd-path" transform="scale(0.125) translate(48 16)"/>
    </clipPath>
  </defs>

  <!-- Sparkles -->
  <g fill="#ffef6b" opacity="0.7">
    <circle cx="20" cy="40" r="1.2">
      <animate attributeName="opacity" values="0;1;0" dur="2.2s" repeatCount="indefinite"/>
    </circle>
    <circle cx="200" cy="28" r="1.4">
      <animate attributeName="opacity" values="0;1;0" dur="2.6s" begin="0.5s" repeatCount="indefinite"/>
    </circle>
    <circle cx="186" cy="54" r="1">
      <animate attributeName="opacity" values="0;1;0" dur="1.9s" begin="0.9s" repeatCount="indefinite"/>
    </circle>
    <circle cx="35" cy="18" r="1.1">
      <animate attributeName="opacity" values="0;1;0" dur="2.4s" begin="1.3s" repeatCount="indefinite"/>
    </circle>
  </g>

  <!-- Coiled dragon, centered in the banner, slowly rotating. -->
  <g transform="translate(110 40)">
    <animateTransform attributeName="transform" type="rotate"
      values="0; 360" dur="20s" additive="sum" repeatCount="indefinite"/>

    <g transform="translate(-32 -32)">
      <use href="#dd-path" transform="scale(0.125) translate(48 16)" fill="url(#dd-grad)"/>
      <g clip-path="url(#dd-clip)">
        <rect x="0" y="0" width="72" height="72" fill="url(#dd-scales)"/>
      </g>
      <use href="#dd-path" transform="scale(0.125) translate(48 16)" fill="none"
           stroke="#0b1f0d" stroke-width="2" opacity="0.5"/>
    </g>
  </g>
</svg>
